<?xml version="1.0" encoding="utf-8"?>
<svg stroke="black" stroke-width="0.25" stroke-dasharray="2,2" fill="none" xmlns="http://www.w3.org/2000/svg" xmlns:xlink="http://www.w3.org/1999/xlink" viewBox="0 0 100 100">

<path class="base" d="M50,0C26.7,0,7.9,18.9,7.9,42.1C7.9,65.4,32.1,100,50,100
	c17.9,0,42.1-34.6,42.1-57.9C92.1,18.9,73.3,0,50,0z"/>

<path class="ajuda" d="M74.324,74.517c-7.5,5.2-18.7,2-18.7,2s1-11.6,8.5-16.8s18.7-2,18.7-2
	S81.824,69.317,74.324,74.517z"/>

<path class="ajuda" d="M17,57.716c0,0,11.2-3.2,18.7,2s8.5,16.8,8.5,16.8s-11.2,3.2-18.7-2
	C18,69.316,17,57.716,17,57.716z"/>
</svg>