<?xml version="1.0" encoding="utf-8"?>
<svg stroke="black" stroke-width="0.25" stroke-dasharray="2,2" fill="none" xmlns="http://www.w3.org/2000/svg" xmlns:xlink="http://www.w3.org/1999/xlink" viewBox="0 0 100 100">

<path class="base" d="M9.5,72.7c0.1,0,0.4,0,0.2-0.3c-0.1-0.101-0.5,0-0.3-0.301
C9.5,72,9.8,71.9,10,71.9c0.5,0,1,0.1,1.4,0c0.4-0.101,0.8-0.301,1.2-0.5c-0.4-0.101-0.8-0.101-1.2-0.2c-0.2,0-0.4,0-0.6,0
c-0.2,0-0.4-0.101-0.6-0.101c0.2-0.1,0.4-0.3,0.6-0.3c1.8,0,3.7,0,5.1-1.399C16,69.3,16,69.3,16.1,69.2c-0.1,0-0.2-0.101-0.3-0.101
c-1-0.3-2-0.199-3-0.1c-0.4,0.1-1.2,0.2-1.2-0.2c0-0.5,0.8-0.2,1.2-0.3c0.4-0.1,0.7-0.2,1.1-0.3c-0.4,0-0.7,0-1.1,0
c-0.3,0-0.6,0.1-1,0.2C9.7,69,7.4,67.9,5.3,68.8c-0.1,0-0.5-0.2-0.5-0.399C4.7,68,5,68,5.1,68c1.3-0.1,2.5-0.2,3.7-0.3
c1.5,0.1,3,0.1,4.5-0.3c0.2-0.101,0.3-0.101,0.5-0.2c-0.1-0.101-0.2-0.3-0.4-0.4c-1.7-1.5-3.5-2.8-4.9-4.6c-0.3-0.4-0.4-1-1-1.2
c-0.2,0.6-0.2,1.3-0.1,2c0.2,1.3,1.2,1.8,2.3,2.4c0.2,0.1,0.2,0.3,0.4,0.5C10,65.9,9.8,66.1,9.7,66c-3.5-0.4-6,1.6-8.6,3.4
C0.3,70,0,70.9,0.4,71.9S1.5,73.3,2.5,73.3c1.3,0,2.5-0.1,3.8-0.2C7.4,73,8.5,73.3,9.5,72.7z"/>

<path class="base" d="M3.3,46c0.5,0.5,0.5,1,0.3,1.6C3,49.8,2.7,52,3.1,54.3
c0.1,0.5,0.2,1,0.3,1.4c0.1-0.4,0.3-0.9,0.4-1.3C3.9,54.1,3.9,53.9,4,53.6C4,53.4,4.1,53.2,4.2,53.1c0.1,0.2,0.1,0.4,0.2,0.601
c0,1.6,0.6,2.899,1.7,4c-2.4-6.2-2-12.1,1.4-17.8c0-0.1,0-0.3,0-0.3c-1.1-0.3-0.2-0.7,0-0.9c1.1-0.9,2.4-1.4,3.4-2.5
c0.1-0.1,0.1-0.2,0.2-0.3c-0.1,0-0.3,0-0.4,0c-1.9,0.4-3.8,0.8-5.6,1.2c-0.5,0.1-0.6,0.3-0.3,0.7c0.8,0.9,0.9,1.9,0.6,3
c-0.5,2.2-2.3,3.4-3.8,4.9c-0.1,0.1-0.2,0.2-0.2,0.3c0.1,0,0.2,0,0.3-0.1C2.2,45.7,2.8,45.5,3.3,46z"/>

<path class="base" d="M13.9,33.5c-0.9-0.9-1.9-1.8-2.8-2.7c0,0-0.2,0-0.3,0
c-1.2,1.4-1.9,2.9-2.1,4.8c0,0.2,0,0.4,0.3,0.3c1.6-0.5,3.2-1,4.7-1.5C14.2,34.2,14.2,33.9,13.9,33.5z"/>

<path class="base" d="M10,37.6c1.3-0.4,2.5-1.1,3.7-1.8c0.1-0.1,0.1-0.3,0.2-0.4
c-0.1,0-0.3,0-0.4,0.1C12.1,35.7,11.2,36.8,10,37.6z"/>

<path class="base" d="M6.4,73.9c-0.1,0-0.2,0-0.3,0.1C6.2,74,6.3,74,6.4,73.9z"/>

<path class="base" d="M4,75.9C5,76,5.5,75.7,5.6,75c0-0.2-0.1-0.3-0.3-0.3
c-0.8,0.1-1.3,0.5-1.7,1.1C3.9,75.8,4.1,75.9,4,75.9z"/>

<path class="base" d="M26.2,29.3c-1.1,1-1.7,1.7,0,2.6c0.2,0.1,0.3,0.6,0.6,0.2
c1.3-1.9,3.1-3.3,5-4.4c3.9-2.2,8.3-2.8,12.6-3.6c7.1-1.3,14.3-1.7,21.5-2.3c0.1,0,0.199,0,0.399,0.1c-0.2,0-0.3,0.1-0.5,0.1
c-6.5,0.8-12.899,1.6-19.4,2.8C40,25.9,33.2,26.5,28,31.3c-0.5,0.5-1.4,0.9-0.5,1.9c1.3,1.3,2.1,2.9,2.4,4.8
c0.2,1.2,0.8,2.3,1.6,3.2c0.6,0.6,1.2,1.2,1.7,1.9c1,1.5,1.1,3,0.1,4.5c-0.9,1.4-2.2,1.6-3.7,1.4c-2.2-0.3-4.4-0.8-6.6-1.4
c-0.6-0.2-0.7-0.1-0.7,0.5c0,1.2,0.6,2.2,1.4,3.1c2.1,2.8,5.1,3.1,9,3.1c2.7,0.101,6-0.7,9.2-1.899c0.1,0,0.2-0.101,0.2-0.101
c-0.1,0-0.2,0-0.3,0c-2.3,0.101-4.6,0.101-6.9-0.6c-1.1-0.3-2.2-0.8-2.2-2.1s1.1-1.7,2-2.1c5.1-2,10.4-2.5,15.8-2.4
c0.5,0,1,0,1.5,0c-0.5-0.2-1-0.4-1.5-0.5c-6.1-1.8-12.1-3.9-18.6-3.8c-0.1,0-0.3-0.1-0.4-0.2c0.2,0,0.4-0.1,0.5-0.1
c4,0.3,8,0.7,12,1.5c0.4,0.1,0.6,0.1,0.4-0.4c-0.3-0.9,0.2-1.5,1.1-1.8c5-1.8,10.1-3.4,15.4-4.5c0.5-0.1,1-0.2,1.6-0.3
c-0.6-0.1-1.1-0.2-1.7-0.2c-4.6-0.4-9.3,0-13.9,0.1c-3.7,0.1-7.4,0.1-11.1,0.7c-0.2,0-0.4,0-0.6,0c0.2-0.1,0.4-0.2,0.5-0.2
c0.7-0.1,1.3-0.3,2-0.4c7.1-0.9,14.2-1,21.399-0.9c0.301,0,0.5,0,0.801,0c-0.2-0.1-0.4-0.3-0.601-0.4c-0.3-0.3-0.5-0.6-0.6-1.1
c-0.3-1.4,0.5-2.6,2.5-3.5c6.7-3,13.1-6.7,20.3-8.6c0.1,0,0.1-0.1,0.2-0.1c-0.101,0-0.101,0-0.2,0c-2.2,0-4.4-0.3-6.6-0.1
C72,20.5,69,20.5,66.1,20.6C56.7,21,47.4,21.8,38.2,24.1C33.9,25.2,29.6,26.2,26.2,29.3z"/>

<path class="base" d="M57.3,46.5c-0.5,0.1-1.1,0.2-1.6,0.3c-2.7,0.9-5.5,1.9-8.2,2.8
c-0.9,0.3-1.5-0.1-1.5-1.1c0-0.6-0.2-0.4-0.5-0.2c-2,1-3.8,2.3-5.9,3.101c-0.1,0-0.1,0.1-0.2,0.1c0.1,0,0.2,0.1,0.3,0.1
c0.8,0.101,1.8,0.101,2.4,0.101c1.3-0.101,2.3,0,3.3-0.2c3.9-0.6,7.7-1.9,11.6-2.3c0.4,0,0.8-0.2,1.2-0.3
c-0.4-0.1-0.8-0.1-1.101-0.2c-0.399-0.1-0.8-0.2-1-0.6C56,48,56.2,47.8,56.3,47.6C56.6,47.2,57,46.9,57.3,46.5z"/>

<path class="base" d="M6.1,76.7c-1,0-1.6,0.6-2,1.399C3.9,78.4,3.6,78.8,3.8,79.2
c0.6,0.3,2.7-1,2.7-1.8C6.4,77.2,6.4,76.7,6.1,76.7z"/>

<path class="base" d="M22.9,28.5c-0.2,0.8,0.6,1.4,1.5,1.8c0.5,0.2,0.7-0.5,1.1-0.9
c3.6-3.5,8.2-5.1,13-6c4.2-0.9,8.7-0.9,11.9-4.4c0.2-0.2,0.4-0.2,0.7-0.3l0.101-0.1H51.1c-2.3,0.6-4.6,0.5-6.899,0.9
c-7.4,1.4-15,2.1-22.2,5c-0.4,0.2-0.3,0.2-0.1,0.5C22.4,25.9,23.1,26.9,22.9,28.5z"/>

<path class="base" d="M20.7,26.5c-0.5,2.6,1,3.9,2.8,5.2c1.1,0.8,2.4,1.7,2.8,3
c0.4,1.2,1.3,1.7,2.2,2.4c0,0,0.1,0,0.2,0.1c0-0.1,0-0.1,0-0.2c-0.5-2.1-1.4-4-3.2-5.4c-1.1-0.9-2.8-1.4-3-3.1
c-0.2-3-1.5-4.5-4.4-5.3c0.5,0.4,1.1,0.9,1.6,1.3C20.3,25,20.9,25.7,20.7,26.5z"/>

<path class="base" d="M21.1,30.6c0.1,0,0.2,0,0.4,0c-0.1-0.1-0.1-0.2-0.2-0.3
c-1.1-1.1-2.1-2.1-1.1-3.9c0.1-0.2-0.3-0.6-0.7-0.9c-0.5,0.4-1.5,0.3-1.5,1C17.9,28.2,19.5,30.1,21.1,30.6z"/>

<path class="base" d="M84.9,63.8c-0.601,0-1,0.601-1.4,1c0.6,0.2,1.2,0.3,1.8,0.5
c0.2-0.1,0.5-0.3,0.8-0.5C85.8,64.4,85.5,63.8,84.9,63.8z"/>

<path class="base" d="M72.4,68.9C72.1,69.3,71.7,69.4,71.3,69.5c0,0,0,0-0.1-0.1
c0.399-0.301,0.399-0.9,1.1-1c0.7-0.101,0.8-0.5,0.3-1C71.1,66.2,69.7,64.8,68.5,63.3c-0.1-0.2-0.5-0.2-0.7-0.2
C67,63,66.1,63.8,65.3,62.9c-0.2-0.2-0.8,0-0.7-0.4c0.101-0.5,0.601-0.2,0.9-0.1C67.3,62.8,68,62.3,67.6,61
c-0.699-2-1.3-4-1.399-6.1c0-0.4-0.3-0.301-0.5-0.301c-2,0.4-3.9,0.7-5.7,1.7c-2.2,1.2-4.1,2.7-5.3,5c-0.8,1.5-0.5,2.2,0.899,2.4
c4.801,0.7,9.5,1.7,14,3.5c0.301,0.1,0.9,0,0.801,0.399c0,0.4-0.601,0.301-1,0.301c-2.7,0-5.4,0-8,0.399
C61,68.4,60.7,68.5,60.3,68.5c0.3,0,0.7,0,1,0s0.601,0,0.9,0.1c0.1,0,0.3,0.101,0.399,0.2C62.5,68.9,62.3,69,62.2,69
c-1,0.1-2,0.2-2.9,0.3C58.9,69.4,58.7,69.7,58.8,70c0.101,0.4,0.4,0,0.601,0c0.399-0.1,0.699-0.2,1.1-0.3c0.5-0.101,1-0.4,1.5-0.2
c-0.3,0.6-1,0.5-1.5,0.7c-0.3,0.1-0.9,0.1-0.8,0.399c0.2,0.601,0,1-0.3,1.5C59.3,72.2,59.3,72.3,59.3,72.4c0.101,0,0.2,0,0.4-0.101
c1.3-0.5,2.5-1.1,3.8-1.6c0.2-0.101,0.5,0,0.5,0c0.1,0.3-0.2,0.3-0.3,0.399c-1.9,0.5-2.2,1.9-2.5,3.2c0.899-0.5,1.899-0.8,2.899-1
c1.7-0.399,3.4-0.6,4.9-1.7c1.5-1.1,3.1-2,5-2.199c0.4,0,0.6-0.301,0.5-0.4C73.8,68.5,73.1,68.1,72.4,68.9z"/>

<path class="base" d="M90,57.8c-1.9-0.6-3.9-1-5.5-2.3c-3.1-2.5-6.7-3.9-10.6-4.6
C70.6,50.3,70.7,50.3,70.2,53.4C70,54.8,70.5,54.9,71.6,54.8c1.9-0.1,3.7,0.4,5.5,1c0.2,0.101,0.4,0.3,0.601,0.5
c-0.3,0-0.601,0.101-0.8,0C75,55.6,73,55.1,71,55c-0.6,0-0.8,0.2-0.6,0.8C70.8,57.4,71.5,58.9,72.6,60.1c2,2.2,4.7,3.101,7.4,4.2
c1.3,0.5,2.1,0.4,3.1-0.5c1.101-1,2.2-0.7,3.2,0c0.2,0.101,0.3,0.2,0.5,0.3c0-0.199,0-0.399,0.101-0.6c0-0.2,0.1-0.4,0.1-0.5
c0.1,0,0.2,0,0.3,0.1c0.4,0.5,0.5,1.101,0.4,1.7c-0.101,0.601-0.5,0.9-1,1C85.1,66,83.6,65.5,82,65.3c-3.5-0.6-6.8-1.7-9.2-4.3
c-4.5-4.9-4-11.7,1-16.1c2.3-2.1,5.2-3,8.101-3.9c0.1,0,0.3-0.1,0.399-0.2c-0.1,0-0.3-0.1-0.399-0.1c-1,0-2,0-3,0.1
c-2.801,0.4-5.5,1-7.301,3.5c-2.3,3.2-3.3,6.8-3.899,10.5c0,0.101-0.101,0.2-0.101,0.3c0-0.1-0.1-0.199-0.1-0.3
c-0.1-1.6-0.1-3.1-0.1-4.6c-0.101,0-0.101,0-0.2,0c0-0.4,0-0.9,0-1.3c0-0.1,0-0.3,0-0.4C67.1,48.6,67.1,48.7,67,48.9
c-0.2,1.2-0.3,2.4-0.4,3.6c-0.3,3.6,0.101,7.1,2.101,10.2c4.7,7.2,11.899,9.5,19.899,9.7c4.5,0.1,7.801-3.601,7.7-7.4
C96.2,61.7,94,59.1,90,57.8z"/>

<path class="base" d="M86.3,41.6c-0.7-0.5-1.6-0.5-2.5-0.6c-4.399,0.7-8.3,2.3-11.2,6
c-0.3,0.3-0.5,0.7-0.699,1.1c0.399,0,0.8,0,1.199,0c0.101,0,0.2,0,0.301,0c3-0.1,5.8,0.7,8.6,1.4c0.1,0,0.2,0,0.3,0
c0-0.1-0.1-0.1-0.1-0.2c-1.7-1.2-3.3-2.4-5.4-2.8c-0.2,0-0.3-0.2-0.399-0.3c0.1-0.1,0.3-0.1,0.399-0.2c1.4-0.2,2.7,0.2,4,0.7
c2.601,0.9,5.101,2.2,7.8,2.8c0.2,0,0.4,0,0.601,0.1c-0.101-0.2-0.3-0.3-0.4-0.5c-1.1-0.9-2.3-1.8-3.399-2.7
C85.3,46.3,85.1,46.1,85,46c0.2-0.1,0.4-0.2,0.6-0.2c4.4-0.8,8,0.9,11.5,3.2c0.301,0.2,0.601,0.4,1,0.6c-0.199-0.3-0.399-0.7-0.6-1
C94.3,45.3,90.3,43.5,86.3,41.6z"/>

<path class="base" d="M60.4,73c-0.2,0.6-0.5,1.2-0.7,1.8c0,0.101,0,0.101,0.1,0.2H59.9
c0.3-0.7,0.699-1.3,1-1.8C60.8,73,60.8,72.9,60.7,72.8C60.6,72.9,60.4,72.9,60.4,73z"/>

<path class="base" d="M99.4,40.3c-1.101,0.1-2.2,0.1-3.301-0.1c-3-0.5-5.6-2.2-8.699-2.5
c-0.301,0-0.7,0.1-0.801-0.3c0-0.1,0.4-0.4,0.7-0.5c1.8-0.9,3.9-1,5.8-1.6c0.101,0,0.2-0.1,0.301-0.1c-0.101,0-0.101,0-0.2,0
c-4.2,0.2-8.4,0.1-12.601,0.7c-2.1,0.3-3.8,1.3-5.5,2.4c-0.1,0.1-0.3,0.1-0.399,0.1c0.1-0.1,0.1-0.3,0.2-0.4
c0.8-1.1,1.5-2.2,1.899-3.4c-0.899,0.6-1.8,1.2-2.7,1.8c-1.5,1-2.699,2.2-3.699,3.7c-2,3.1-2.5,6.5-2.5,10c0,0.1,0,0.2,0,0.4
c0-0.1,0.1-0.2,0.1-0.4c1.3-4,3.1-7.6,7.4-9.1c3.1-1.1,6.3-1.3,9.399-0.4c4.9,1.3,9.8,1.3,14.601-0.2c0.199-0.1,0.3-0.1,0.5-0.2
C99.7,40.2,99.6,40.2,99.4,40.3z"/>

<path class="base" d="M18,50.9c0.5,0.699,1.3,1.1,2,1.399c0.1,0,0.2,0.101,0.4,0.101
c0-0.101,0-0.301,0-0.4c-0.6-1.4-0.8-2.9-0.8-4.4c0-1-0.6-1.2-1.3-1.3c-0.7-0.1-0.8,0.5-0.9,0.9c-0.2,0.6-0.3,1.2-0.4,1.5
c0,2.7,1.3,4.3,3.4,4.5c0.1,0,0.2,0,0.3,0C20.6,53.1,20.5,53.1,20.4,53c-1-0.4-2-0.9-2.7-1.9c-0.1-0.1-0.1-0.3-0.1-0.5
C17.7,50.7,17.9,50.7,18,50.9z"/>

<path class="base" d="M64.4,66.3c-0.101,0-0.101-0.1-0.2-0.1c-3-0.7-6.101-1.601-9.2-1.7
c-2.2,0-2.5-1-1.5-2.8c2.6-4.601,7-6.7,12-7.7c0.4-0.1,0.7-0.2,0.6-0.7c-0.1-1-0.1-2,0.101-3c0.1-0.7,0-1.1-0.9-1.2
c-3.3-0.4-6.5,0.2-9.7,0.7c-4.5,0.8-8.7,2.601-13.2,3.3C36.9,54,31.6,56.3,26,53.7c-2-0.9-4.4-3.7-4.2-5.9c0.1-1-1-0.7-1.5-0.9
c-0.5-0.2-0.2,0.4-0.2,0.6c0,2,0.8,3.8,1.3,5.6c0.1,0.2,0.2,0.601,0,0.7c-0.2,0.101-0.5,0-0.7,0c-0.2,0-0.4-0.1-0.6-0.1
c0.2,0.1,0.3,0.3,0.5,0.399c0.2,0.2,0.3,0.301,0.4,0.5c-0.2,0-0.3,0-0.5,0c-3.9-1.3-5.2-5.399-2.9-8.7c0.1-0.2,0.3-0.3,0.5-0.3
c1.1,0.1,2.2,0.2,3.2,0.4c2.7,0.3,5.2,1.7,7.8,2.2c1.2,0.2,2.5,0.6,3.3-0.6c0.9-1.3,1.1-2.9,0-4.1c-1.8-2-3-4.3-4.7-6.3
c-0.3-0.3-0.6-0.6-0.9-0.7c-0.4-0.1-0.5-0.1-0.7-0.6c-0.7-1.8-1.8-3.3-3.5-4.1c-1.9-0.8-3.9-1.5-4.7-3.7c-1.3-3.9-4.5-5.3-8-6.3
c-0.4-0.1-0.9,0-1.4,0c-0.1,0-0.1,0.1-0.2,0.1c0.1,0,0.1,0.1,0.2,0.1c2.8,0.6,5,2.3,7.2,4.1c0.8,0.6,1.1,1.6,1,2.5
c-0.2,1.3,0.4,2,1.3,2.7c0.6,0.4,1.2,0.6,1.8,0.9c0.8,0.5,1.6,1,2.1,1.9c-0.6-0.4-1.2-0.5-1.9-0.4c-0.2,0-0.3,0.1-0.2,0.3
c0.1,0.1,0.4,0.3,0.2,0.5c0,0-0.4-0.1-0.6-0.3c-2.7-2.3-5.8-3.8-9-5.2c1.1,1.1,2.2,2.2,3.3,3.3c1.6,1.7,1.3,3.5-0.8,4.4
c-1.1,0.5-2.2,1-3.3,1.5c-0.1,0-0.2,0.1-0.3,0.2c0.1,0,0.2,0,0.3,0c1.7-0.2,3.3,0,4.8,0.9c1.6,0.9,1.6,2.3,0.2,3.4
c-0.4,0.3-0.7,0.7-1,1.2L13.5,44c0,0.1-0.1,0.1-0.1,0.2c0.3,0.1,0.2,0.2,0.2,0.2l0.1-0.1c0-0.1,0.1-0.1,0.1-0.2l0.1-0.1
c0.1-0.1,0.2-0.2,0.4-0.3c1.3-1.1,2.7-2.1,4.6-1.6c0.1,0,0.2,0.2,0.3,0.3c-0.1,0.1-0.2,0.2-0.3,0.2c-2.5-0.3-4.1,1.1-5.4,3
c-0.2,0.2-0.4,0.6-0.6,0.4c-0.3-0.1-0.2-0.5-0.2-0.8c0.3-1.4,1.3-2.4,2.1-3.5c0.5-0.8,0.4-1.3-0.4-1.9c-2.8-1.9-5.9-1-7.3,2
C3.6,49.2,4.8,56,9.8,62.3c3.4,4.3,7.8,6.8,13.5,5.7c0.1,0,0.2-0.1,0.3-0.1c-0.1,0-0.2-0.101-0.3-0.101c-2.4-0.5-4.4-1.6-5.8-3.7
c-0.4-0.6-0.6-1.199-0.4-1.8c0-0.1,0.1-0.2,0.2-0.3c0,0.1,0.1,0.1,0.1,0.2c0.3,2.2,1.9,3.399,3.7,4.3c2.5,1.2,5.2,1.4,7.9,1.6
c0.4,0,1.1-0.1,1.1,0.301c0,0.399-0.8,0.399-1.2,0.399c-3.3-0.6-6.6,0-9.9,0.4c-1.4,0.2-3-0.101-4.1,1.2
c-0.4,0.5-1.1,0.8-1.6,1.199C12,72.5,10.2,72.2,9,73.3c0.5-0.2,1-0.399,1.6-0.6c0.1,0,0.3,0,0.4-0.101c-0.1,0.101-0.2,0.2-0.3,0.2
c-1.1,0.8-2.3,1.101-3.6,1.5c-0.6,0.2-1,0.7-0.9,1.2c0.1,0.3,0.8,0.1,1.1-0.1c1.3-0.5,2.6-1,3.8-1.5c0.2-0.101,0.5,0,0.5,0
c0.1,0.3-0.2,0.3-0.4,0.399C9.8,74.9,8.5,75.5,7.1,76c-0.1,0.1-0.4,0-0.2,0.3C7.4,76.9,7.2,77.4,7,78c-0.1,0.2-0.4,0.4-0.1,0.5
c0.3,0.1,0.7,0.2,0.9-0.2c0.6-1.1,1.4-2,2.7-2.3c0.7-0.2,1.3-0.4,2-0.5c0.2-0.1,0.3-0.7,0.6-0.3c0.2,0.3-0.2,0.7-0.5,0.8
c-0.3,0.1-0.7,0.2-1,0.3c-1.1,0.101-1.5,0.7-1.2,1.8c0.1,0.5,0.3,0.9,0.1,1.4c-0.1,0.1-0.1,0.2-0.1,0.3c0.1,0,0.3,0,0.4-0.1
c1.3-0.9,2.7-1.5,3.9-2.5c0.9-0.8,1.8-1.601,2.9-1.8c2.1-0.4,3.7-1.601,5.1-3.101c0.3-0.399,0.9-0.6,1.1-0.1
c0.2,0.5,0.6,0.399,0.9,0.399c2.7,0.5,5.3,1.4,8,0.601c1.4-0.4,2.9-0.2,4.1-1.101c1-0.699,0.8-2-0.3-2.399c0.5,1.3-0.5,1.5-1.3,1.7
c-0.6,0.199-1.1,0.399-1.7,0.3c0.4-0.5,1-0.5,1.6-0.7c0.4-0.1,1-0.1,1.1-0.6c0.1-0.5-0.4-0.801-0.7-1.101c-2.3-1.7-4-3.8-5.8-6
c-1.8-2.2-3.5-4.5-6.7-4.7c-0.1,0-0.1-0.1-0.2-0.1c0.1-0.1,0.3-0.2,0.4-0.2c1.3-0.1,2.5,0.3,3.5,1.101
c1.8,1.399,3.5,2.899,4.7,4.899c2.3,3.8,5.9,4.9,9.9,4.5c7.6-0.8,15.2-2,22.9-2.5C64.3,66.3,64.3,66.3,64.4,66.3z"/>

<path class="base" d="M15.2,27.6c-1,0.4-1.9,0.9-2.9,1.3c-0.1,0.1-0.2,0.2-0.3,0.3
c0.1,0.1,0.2,0.2,0.3,0.2c2.2,0.9,4.2,2.2,6.2,3.5c0.4,0.2,0.8,0.4,1.2,0.3c0.2,0,0.4-0.1,0.6-0.1c-0.2-0.1-0.3-0.2-0.5-0.3
c-0.7-0.5-1.4-0.9-2.1-1.4c-1.1-0.7-1.9-1.5-1.5-3C16.4,27.7,16.1,27.1,15.2,27.6z"/>

<path class="base" d="M58.7,71.5c-0.7,0.4-1.3,0.9-1.4,1.9c-0.1,0.399,0.2,0.3,0.4,0.199
c0.7-0.5,0.899-1.3,1.2-2C59,71.4,58.8,71.4,58.7,71.5z"/>

<path class="base" d="M57.9,70.2c-0.7,0.3-0.9,1-1.2,1.7c0.7-0.4,0.899-1,1.399-1.601
C58,70.3,58,70.2,57.9,70.2z"/>

<path class="base" d="M9.7,78.2c-1.5,0.1-1.6,1.3-1.8,2.5c0,0,0,0.1,0.1,0.2
c0.9-0.5,1.7-1.101,2-2.2C10.1,78.5,10,78.2,9.7,78.2z"/>

</svg>