<?xml version="1.0" encoding="utf-8"?>
<svg stroke="black" stroke-width="0.25" stroke-dasharray="2,2" fill="none" xmlns="http://www.w3.org/2000/svg" xmlns:xlink="http://www.w3.org/1999/xlink" viewBox="0 0 100 100">

  <path class="base" d="M36.2,85.7l1.4,2.8L36,91.2l3.3,0l1.4,2.8l1.7-2.8l3.3,0l-3.3,0l3.3,0l1.7,2.9l-1.7,2.5l3.3,0.1l1.7,2.8
	l1.6-2.9l3.2,0.1l-1.6-2.9l1.6-2.9l-1.6,2.9l1.6-2.9l3.2,0.1l1.3,2.8l1.7-2.7l3.2,0.1l-1.6-2.9l1.7-2.7l-3.3-0.1l-1.6-2.9l1.6-2.9
	l3.2,0.1l-1.6-2.9l1.6-2.9l3.2,0.1l1.4,2.8l1.7-2.7l3.2,0.1l1.4,2.8L74,79.7l3.1,0.2l1.4,2.8l1.7-2.7l3.1,0.2l-1.4-2.8l1.7-2.7
	l3.2,0.1l1.4,2.8l1.7-2.7l3.2,0.1l-1.6-2.8l1.7-2.7l-3.3-0.1l-1.6-2.8l1.7-2.7l3.1,0.2l-1.4-2.8l1.7-2.7l-3.3-0.1l-1.4-2.8l-1.7,2.8
	l-3.3-0.1l0,0l-1.6-2.9l0,0.1l1.7-2.7l-3.3-0.1l-1.6-2.8l1.6-2.8l3.2,0.1l-1.6-2.8l1.6-2.8l3.2,0.1l1.4,2.8l1.7-2.7l3.2,0.1
	l-1.6-2.8L93,36L89.7,36l-1.6-2.8l1.6-2.8l3.2,0.1l-1.6-2.8l1.6-2.8l-3.3,0L88,21.9l-1.7,2.8l-3.3,0l-1.6-2.8l1.7-2.6L80,19.2
	l-1.6-2.8l-1.7,2.8l-3.2-0.1l1.6,2.9l0,0l-1.7,2.9l0,0l-3.3,0l-1.6-2.8L67,24.9l0,0L63.7,25l-1.5-2.8l1.7-2.6l-3.2-0.1l-1.5-2.8
	l1.6-2.7l3.1,0.1l-1.5-2.8l1.6-2.7l-3.1,0l-1.4-2.7l-1.6,2.6l-3.1,0l-1.5-2.7L55,3.2l-3.1-0.1l-1.5-2.7l-1.7,2.8l-3.2-0.1l1.6,2.9
	l-1.7,2.8l-3.2-0.1L41,5.8l-1.7,2.7L36,8.4l1.6,2.9l-1.7,2.7l3.3,0.1l1.6,2.9L39,19.7l-3.2-0.1l1.6,2.9l-1.7,2.8l-3.3,0l-1.5-2.8
	l-1.6,2.8l-3.3,0l-1.5-2.8l1.7-2.6L23,19.9l-1.5-2.8l-1.6,2.8l-3.2-0.1l1.6,2.9l-1.6,2.8l-3.3,0l-1.5-2.8l-1.6,2.8l-3.3,0l1.7,2.8
	l-1.7,2.7l3.3,0l1.7,2.8l-1.7,2.7l-3.1-0.2l1.5,2.8l-1.7,2.7l3.3,0l1.5,2.8l1.7-2.8l3.3,0l1.7,2.8l-1.7,2.7l3.3,0l1.7,2.8L20,53.4
	L17,53.2l1.5,2.8l-1.7,2.7l-3.1-0.2l-1.3-2.7l-1.7,2.5l-3.1-0.2l1.5,2.8l-1.7,2.5l3.2,0.2l1.5,2.8l-1.7,2.7L7.2,69l1.5,2.8l0,0
	L7,74.5l0,0l3.3,0l1.5,2.8l1.7-2.8l3.3,0l1.5,2.8l-1.7,2.6l3.2,0.2l1.5,2.8l1.7-2.8l3.2,0.2l-1.5-2.9l1.7-2.8l3.3,0l1.5,2.8l1.7-2.8
	l3.3,0l1.7,2.9L36,80.3l3.3,0l1.7,2.8l-1.7,2.7L36.2,85.7z"/>

</svg>
