<?xml version="1.0" encoding="utf-8"?>
<svg stroke="black" stroke-width="0.25" stroke-dasharray="2,2" fill="none" xmlns="http://www.w3.org/2000/svg" xmlns:xlink="http://www.w3.org/1999/xlink" viewBox="0 0 100 100">

<path class="base" d="M89.433,14.177c-6.726,1.78-14.937,5.084-24.631,9.911c-2.803,1.393-5.447,2.772-7.941,4.138
c-0.055-0.072-0.103-0.149-0.16-0.221c-0.874-1.086-1.835-2.012-2.869-2.806c3.72-1.624,7.852-4.75,12.395-9.391
c4.135-4.234,7.144-8.111,9.022-11.633c0.673-1.286,0.86-2.167,0.563-2.641c-0.336-0.515-1.355-0.624-3.057-0.326
c-3.779,0.633-7.774,2.334-11.988,5.104c-5.578,3.66-10.545,8.681-14.903,15.052c-1.733-0.458-3.629-0.661-5.693-0.599
c-2.611,0.059-5.233,0.534-7.864,1.424c-2.805,0.967-5.155,2.335-7.066,4.09c-0.743-5.054-2.398-10.116-4.982-15.188
c-2.236-4.373-4.54-7.687-6.915-9.941c-0.91-0.871-1.603-1.247-2.078-1.128c-0.514,0.139-0.821,0.861-0.92,2.167
c-0.336,3.699,0.327,8.625,1.988,14.778c1.852,6.828,4.297,12.251,7.334,16.277c-0.953,1.732-1.607,3.596-1.963,5.594
c-0.474,2.651-0.365,5.223,0.327,7.715c0.752,2.73,2.207,5.075,4.362,7.033c1.425,1.295,3.002,2.275,4.729,2.956
c-1.523,1.141-2.9,2.656-4.125,4.558l-0.396-0.242l-0.504-0.089c-0.238,0.059-0.376,0.316-0.416,0.771
c-0.139-0.099-0.307-0.168-0.504-0.208l-0.445,0.06c-0.138,0.079-0.237,0.247-0.296,0.504c-0.079,0.258-0.099,0.516-0.059,0.771
l-0.743-0.059c-0.297,0.039-0.475,0.129-0.534,0.267c-0.139,0.336,0.356,1.444,1.484,3.324c-0.534,0.415-0.771,0.802-0.712,1.157
c0.079,0.376,0.693,0.752,1.84,1.128c1.009,0.348,1.895,0.5,2.675,0.481c-0.745,2.602-1.296,5.162-1.636,7.679
c-0.482,3.49-0.484,6.173-0.016,8.06c-1.858,0.731-3.222,1.655-4.08,2.772c-0.745,0.976-0.896,1.743-0.465,2.305
c-0.225,0.413-0.279,0.783-0.159,1.108c0.1,0.276,0.386,0.445,0.861,0.504l0.536-0.052c0.432,0.548,1.841,0.666,4.243,0.349
c2.563-0.353,4.882-1.032,6.976-2.014l2.254,0.145l3.679,0.267c0.811,0.179,1.979,0.544,3.501,1.099
c3.661,1.346,6.618,2.265,8.874,2.76c1.608,0.359,3.046,0.559,4.334,0.619c0.651,1.458,1.747,2.766,3.292,3.921
c1.544,1.147,2.603,1.573,3.177,1.276c0.044-0.023,0.083-0.054,0.118-0.088c0.21,0.16,0.436,0.271,0.683,0.325l0.801-0.03
c0.258-0.105,0.427-0.347,0.524-0.695c0.79-0.523,1.084-1.623,0.87-3.311c-0.223-1.618-0.826-3.271-1.802-4.959
c1.4-2.353,2.122-5.879,2.158-10.591c0.002-0.192-0.004-0.388-0.005-0.581c0.485-0.375,0.869-0.698,1.133-0.963l0.029-0.326
l-1.281-1.898c-0.058-0.864-0.136-1.741-0.236-2.63c0.435-0.379,0.989-0.848,1.667-1.406l3.917-3.235
c0.138-0.119,0.147-0.237,0.029-0.356l-5.283-6.024c1.722-1.345,4.146-3.046,7.272-5.104c0.157-0.098,0.177-0.218,0.059-0.355
c-2.889-3.819-4.966-6.688-6.232-8.607c3.027-1.522,6.866-3.085,11.515-4.688c4.945-1.682,9.546-2.978,13.799-3.888l0.208-0.267
l-0.118-13.146c-0.04-6.43,0.01-10.594,0.148-12.493C89.77,14.207,89.671,14.118,89.433,14.177z"/>

<path class="ajuda" d="M55.948,36.987c0.752,0.297,1.246,1.078,1.484,2.344c0.256,1.267,0.158,2.503-0.297,3.709
c-0.495,1.365-1.267,2.385-2.315,3.057c-1.048,0.672-2.018,0.791-2.908,0.356c-0.891-0.416-1.474-1.216-1.751-2.404
c-0.297-1.246-0.148-2.512,0.445-3.798c0.634-1.365,1.475-2.354,2.523-2.967C54.118,36.73,55.058,36.631,55.948,36.987"/>

<path class="ajuda" d="M24.492,48.264c0.871,1.108,1.455,2.206,1.751,3.294c0.297,1.148,0.168,1.92-0.386,2.315
c-0.534,0.376-1.295,0.267-2.285-0.326c-0.851-0.495-1.761-1.276-2.73-2.345c-0.85-0.969-1.444-1.969-1.781-2.998
c-0.336-1.049-0.287-1.791,0.148-2.226c0.535-0.494,1.346-0.504,2.434-0.029C22.691,46.404,23.641,47.176,24.492,48.264"/>

<path class="ajuda" d="M50.993,32.684c-0.237-1.207-0.9-2.107-1.988-2.701c-1.048-0.593-2.127-0.712-3.235-0.356
c-0.633,0.199-1.148,0.55-1.571,1.021c0.035-0.018,0.064-0.04,0.102-0.056c0.435-0.198,0.88-0.198,1.335,0
c0.455,0.178,0.771,0.495,0.95,0.95c0.157,0.416,0.157,0.851,0,1.306c-0.159,0.495-0.465,0.821-0.92,0.979
c-0.476,0.178-0.921,0.178-1.336,0c-0.435-0.178-0.741-0.484-0.92-0.92c-0.08-0.195-0.121-0.393-0.133-0.593
c-0.247,0.851-0.22,1.755,0.089,2.715c0.336,0.989,0.98,1.731,1.929,2.226c0.989,0.514,2.029,0.583,3.117,0.208
c0.929-0.317,1.642-0.939,2.137-1.87C51.062,34.663,51.209,33.693,50.993,32.684z"/>

<path class="ajuda" d="M28.884,39.302c-0.296-1.088-0.86-1.919-1.692-2.493c-0.039-0.026-0.077-0.046-0.117-0.071
c0.099,0.127,0.186,0.264,0.249,0.426c0.159,0.416,0.159,0.851,0,1.306c-0.158,0.494-0.464,0.821-0.92,0.979
c-0.475,0.178-0.919,0.178-1.335,0c-0.435-0.178-0.742-0.485-0.92-0.92c-0.178-0.435-0.188-0.88-0.03-1.335
c0.152-0.436,0.443-0.75,0.867-0.95c-0.153,0.02-0.308,0.047-0.464,0.09c-1.088,0.296-1.87,0.95-2.344,1.958
c-0.476,0.97-0.554,1.999-0.238,3.086c0.258,0.929,0.841,1.632,1.75,2.106c0.93,0.475,1.87,0.574,2.82,0.297
c0.95-0.297,1.651-0.841,2.106-1.632C29.111,41.3,29.201,40.351,28.884,39.302z"/>

</svg>