<?xml version="1.0" encoding="utf-8"?>
<svg stroke="black" stroke-width="0.25" stroke-dasharray="2,2" fill="none" xmlns="http://www.w3.org/2000/svg" xmlns:xlink="http://www.w3.org/1999/xlink" viewBox="0 0 100 100">

  <path class="base" d="M38.9,86.1h22.2V63.9H38.9V86.1z"/>
  <path class="base" d="M38.9,63.9L50,52.8L38.9,41.7L27.8,52.8L38.9,63.9z"/>
  <path class="base" d="M50,52.8l11.1,11.1l11.1-11.1L61.1,41.7L50,52.8z"/>
  <path class="base" d="M27.8,52.8V41.7H16.7v11.1H27.8z"/>
  <path class="base" d="M27.8,41.7h11.1V30.6H27.8V41.7z"/>
  <path class="base" d="M61.1,41.7h11.1V30.6H61.1V41.7z"/>
  <path class="base" d="M72.2,41.7v11.1h11.1V41.7H72.2z"/>
  <path class="base" d="M16.7,52.8l-5.6-5.6l-5.6,5.6l5.6,5.6L16.7,52.8z"/>
  <path class="base" d="M11.1,47.2l5.6-5.6l-5.6-5.6l-5.6,5.6L11.1,47.2z"/>
  <path class="base" d="M27.8,30.6l5.6-5.6l-5.6-5.6L22.2,25L27.8,30.6z"/>
  <path class="base" d="M33.3,25l5.6,5.6l5.6-5.6l-5.6-5.6L33.3,25z"/>
  <path class="base" d="M61.1,30.6l5.6-5.6l-5.6-5.6L55.6,25L61.1,30.6z"/>
  <path class="base" d="M66.7,25l5.6,5.6l5.6-5.6l-5.6-5.6L66.7,25z"/>
  <path class="base" d="M83.3,41.7l5.6,5.6l5.6-5.6l-5.6-5.6L83.3,41.7z"/>
  <path class="base" d="M88.9,47.2l-5.6,5.6l5.6,5.6l5.6-5.6L88.9,47.2z"/>
  <path class="base" d="M11.1,58.3H5.6v5.6h5.6V58.3z"/>
  <path class="base" d="M5.6,58.3v-5.6H0v5.6H5.6z"/>
  <path class="base" d="M5.6,41.7v-5.6H0v5.6H5.6z"/>
  <path class="base" d="M5.6,36.1h5.6v-5.6H5.6V36.1z"/>
  <path class="base" d="M22.2,25v-5.6h-5.6V25H22.2z"/>
  <path class="base" d="M22.2,19.4h5.6v-5.6h-5.6V19.4z"/>
  <path class="base" d="M38.9,19.4h5.6v-5.6h-5.6V19.4z"/>
  <path class="base" d="M55.6,19.4V25H44.4v-5.6H55.6z"/>
  <path class="base" d="M55.6,19.4h5.6v-5.6h-5.6V19.4z"/>
  <path class="base" d="M72.2,19.4h5.6v-5.6h-5.6V19.4z"/>
  <path class="base" d="M77.8,19.4V25h5.6v-5.6H77.8z"/>
  <path class="base" d="M88.9,36.1h5.6v-5.6h-5.6V36.1z"/>
  <path class="base" d="M94.4,36.1v5.6h5.6v-5.6H94.4z"/>
  <path class="base" d="M94.4,52.8v5.6h5.6v-5.6H94.4z"/>
  <path class="base" d="M94.4,58.3h-5.6v5.6h5.6V58.3z"/>
</svg>
