<?xml version="1.0" encoding="utf-8"?>
<svg stroke="black" stroke-width="0.25" stroke-dasharray="2,2" fill="none" xmlns="http://www.w3.org/2000/svg" xmlns:xlink="http://www.w3.org/1999/xlink" viewBox="0 0 100 100">

  <path class="base" d="M36.8,61.2C20.4,55.2,12.1,37,18.1,20.7S42.4-4,58.7,2s24.7,24.2,18.6,40.6C71.3,59,53.1,67.3,36.8,61.2z"/>
  <path class="base" d="M25,93c-8.8-3.2-13.2-13-10-21.7s13-13.2,21.7-10c8.8,3.2,13.2,13,10,21.7C43.5,91.7,33.8,96.2,25,93z"/>
  <path class="base" d="M59.6,94.8c-9.3-3.5-14.1-13.8-10.6-23.2c3.5-9.3,13.8-14.1,23.2-10.6c9.3,3.5,14.1,13.8,10.6,23.2
	C79.3,93.5,68.9,98.2,59.6,94.8z"/>
  <path class="base" d="M46.8,69.4c-1.7-0.6-2.5-2.5-1.9-4.1c0.6-1.7,2.5-2.5,4.1-1.9c1.7,0.6,2.5,2.5,1.9,4.1S48.5,70,46.8,69.4z"
  />
  <path class="base" d="M45.1,99.6c-3.3-1.2-5-4.9-3.7-8.2s4.9-5,8.2-3.7c3.3,1.2,5,4.9,3.7,8.2S48.3,100.8,45.1,99.6z"/>
  <path class="base" d="M47,87.2c-0.9-0.3-1.4-1.4-1-2.3c0.3-0.9,1.4-1.4,2.3-1c0.9,0.3,1.4,1.4,1,2.3C48.9,87.1,47.9,87.5,47,87.2z
	"/>
  <path class="base" d="M81.9,66.7C75,64.2,71.5,56.5,74,49.6c2.6-6.9,10.2-10.4,17.1-7.9C98,44.3,101.6,52,99,58.9
	C96.4,65.8,88.8,69.3,81.9,66.7z"/>
  <path class="base" d="M86.8,77.7c-2.7-1-4.1-4.1-3.1-6.8c1-2.7,4.1-4.1,6.8-3.1c2.7,1,4.1,4.1,3.1,6.8
	C92.5,77.3,89.5,78.7,86.8,77.7z"/>
  <path class="base" d="M82.6,70.1c-0.8-0.3-1.2-1.2-0.9-1.9c0.3-0.8,1.2-1.2,1.9-0.9c0.8,0.3,1.2,1.2,0.9,1.9
	C84.3,70,83.4,70.4,82.6,70.1z"/>
  <path class="base" d="M69.6,60.2c-1.5-0.6-2.3-2.2-1.7-3.7c0.6-1.5,2.2-2.3,3.7-1.7c1.5,0.6,2.3,2.2,1.7,3.7
	C72.8,60,71.1,60.7,69.6,60.2z"/>
  <path class="base" d="M80.9,24.7c-2.8-1-4.2-4.2-3.2-7c1-2.8,4.2-4.2,7-3.2c2.8,1,4.2,4.2,3.2,7C86.8,24.3,83.7,25.7,80.9,24.7z"
  />
  <path class="base" d="M88.8,24.1c-1-0.4-1.5-1.4-1.1-2.4c0.4-1,1.4-1.5,2.4-1.1c1,0.4,1.5,1.4,1.1,2.4
	C90.9,24,89.8,24.5,88.8,24.1z"/>
  <path class="base" d="M87.1,24c-0.3-0.1-0.5-0.5-0.3-0.8c0.1-0.3,0.5-0.5,0.8-0.3c0.3,0.1,0.5,0.5,0.3,0.8
	C87.8,24,87.4,24.2,87.1,24z"/>
  <path class="base" d="M79.8,27.4c-0.8-0.3-1.1-1.1-0.9-1.9c0.3-0.8,1.1-1.1,1.9-0.9c0.8,0.3,1.1,1.1,0.9,1.9
	C81.4,27.3,80.5,27.7,79.8,27.4z"/>
  <path class="base" d="M84.8,40.5c-4.4-1.6-6.6-6.5-5-10.9c1.6-4.4,6.5-6.6,10.9-5c4.4,1.6,6.6,6.5,5,10.9
	C94.1,39.9,89.2,42.1,84.8,40.5z"/>
  <path class="base" d="M79.6,42.1c-1.1-0.4-1.7-1.6-1.3-2.7c0.4-1.1,1.6-1.7,2.7-1.3c1.1,0.4,1.7,1.6,1.3,2.7
	C82,41.9,80.7,42.5,79.6,42.1z"/>
  <path class="base" d="M68.3,7.5c-1-0.4-1.5-1.5-1.1-2.5c0.4-1,1.5-1.5,2.5-1.1c1,0.4,1.5,1.5,1.1,2.5C70.4,7.4,69.3,7.9,68.3,7.5z
	"/>
  <path class="base" d="M66.5,6.2c-0.2-0.1-0.3-0.3-0.2-0.5s0.3-0.3,0.5-0.2C67,5.5,67.1,5.8,67,6S66.7,6.3,66.5,6.2z"/>
  <path class="base" d="M67.7,4.1c-0.2-0.1-0.3-0.3-0.3-0.5c0.1-0.2,0.3-0.3,0.5-0.3c0.2,0.1,0.3,0.3,0.3,0.5
	C68.1,4,67.9,4.1,67.7,4.1z"/>
  <path class="base" d="M67.5,4.3c-0.1,0-0.1-0.1-0.1-0.2C67.5,4,67.6,4,67.6,4c0.1,0,0.1,0.1,0.1,0.2S67.6,4.3,67.5,4.3z"/>
  <path class="base" d="M71.7,10.7c-1.3-0.5-2-2-1.5-3.3c0.5-1.3,2-2,3.3-1.5c1.3,0.5,2,2,1.5,3.3C74.6,10.5,73.1,11.1,71.7,10.7z"
  />
  <path class="base" d="M71.2,5.9c-0.3-0.1-0.4-0.4-0.3-0.7c0.1-0.3,0.4-0.4,0.7-0.3c0.3,0.1,0.4,0.4,0.3,0.7
	C71.8,5.8,71.5,6,71.2,5.9z"/>
  <path class="base" d="M70.9,6.2c-0.1,0-0.1-0.1-0.1-0.2s0.1-0.1,0.2-0.1c0.1,0,0.1,0.1,0.1,0.2S71,6.2,70.9,6.2z"/>
  <path class="base" d="M69.4,8.5c-0.3-0.1-0.4-0.4-0.3-0.7c0.1-0.3,0.4-0.4,0.7-0.3C70,7.7,70.1,8,70,8.2
	C69.9,8.5,69.6,8.6,69.4,8.5z"/>
  <path class="base" d="M80.9,24.7c-2.8-1-4.2-4.2-3.2-7c1-2.8,4.2-4.2,7-3.2c2.8,1,4.2,4.2,3.2,7C86.8,24.3,83.7,25.7,80.9,24.7z"
  />
  <path class="base" d="M81.6,14.2c-0.6-0.2-0.9-0.9-0.7-1.5c0.2-0.6,0.9-0.9,1.5-0.7c0.6,0.2,0.9,0.9,0.7,1.5
	C82.9,14.1,82.2,14.4,81.6,14.2z"/>
  <path class="base" d="M80.8,14.5c-0.2-0.1-0.3-0.3-0.2-0.5s0.3-0.3,0.5-0.2c0.2,0.1,0.3,0.3,0.2,0.5C81.2,14.4,81,14.5,80.8,14.5z
	"/>
  <path class="base" d="M76.5,18c-0.5-0.2-0.8-0.8-0.6-1.3c0.2-0.5,0.8-0.8,1.3-0.6c0.5,0.2,0.8,0.8,0.6,1.3S77,18.1,76.5,18z"/>
  <path class="base" d="M76,15.8c-1.9-0.7-2.8-2.8-2.1-4.7c0.7-1.9,2.8-2.8,4.7-2.1c1.9,0.7,2.8,2.8,2.1,4.7
	C80,15.5,77.9,16.5,76,15.8z"/>
  <path class="base" d="M72.8,12.2c-0.4-0.1-0.6-0.5-0.4-0.9c0.1-0.4,0.5-0.6,0.9-0.4c0.4,0.1,0.6,0.5,0.4,0.9S73.1,12.3,72.8,12.2z
	"/>
  <path class="base" d="M25.1,60.6c-1.4-0.5-2.1-2.1-1.6-3.4c0.5-1.4,2.1-2.1,3.4-1.6s2.1,2.1,1.6,3.4C28,60.4,26.5,61.1,25.1,60.6z
	"/>
  <path class="base" d="M8.5,76.1c-2.4-0.9-3.6-3.5-2.7-5.9c0.9-2.4,3.5-3.6,5.9-2.7c2.4,0.9,3.6,3.5,2.7,5.9
	C13.5,75.8,10.8,77,8.5,76.1z"/>
  <path class="base" d="M14.4,69.6c-0.7-0.3-1-1-0.8-1.7c0.3-0.7,1-1,1.7-0.8c0.7,0.3,1,1,0.8,1.7C15.9,69.5,15.1,69.9,14.4,69.6z"
  />
  <path class="base" d="M6.7,43.9c-3.8-1.4-5.7-5.6-4.3-9.4s5.6-5.7,9.4-4.3c3.8,1.4,5.7,5.6,4.3,9.4S10.5,45.3,6.7,43.9z"/>
  <path class="base" d="M1.9,47.3c-1.4-0.5-2.1-2.1-1.6-3.4c0.5-1.4,2.1-2.1,3.4-1.6c1.4,0.5,2.1,2.1,1.6,3.4
	C4.9,47.1,3.3,47.8,1.9,47.3z"/>
  <path class="base" d="M6.1,45.5c-0.4-0.2-0.6-0.6-0.5-1.1c0.2-0.4,0.6-0.6,1.1-0.5c0.4,0.2,0.6,0.6,0.5,1.1
	C7,45.4,6.5,45.6,6.1,45.5z"/>
  <path class="base" d="M15.6,44.8c-1-0.4-1.5-1.5-1.1-2.4c0.4-1,1.5-1.5,2.4-1.1s1.5,1.5,1.1,2.4C17.7,44.6,16.6,45.1,15.6,44.8z"
  />
  <path class="base" d="M14.5,21.2c-1.7-0.6-2.5-2.5-1.9-4.2c0.6-1.7,2.5-2.5,4.2-1.9c1.7,0.6,2.5,2.5,1.9,4.2
	C18,21,16.2,21.9,14.5,21.2z"/>
  <path class="base" d="M11.2,20.5c-0.5-0.2-0.8-0.8-0.6-1.3c0.2-0.5,0.8-0.8,1.3-0.6c0.5,0.2,0.8,0.8,0.6,1.3S11.7,20.7,11.2,20.5z
	"/>
  <path class="base" d="M12.6,20.6c-0.2-0.1-0.3-0.3-0.2-0.4c0.1-0.2,0.3-0.3,0.4-0.2c0.2,0.1,0.3,0.3,0.2,0.4
	C13,20.6,12.8,20.7,12.6,20.6z"/>
  <path class="base" d="M16.4,23c-0.5-0.2-0.7-0.7-0.5-1.1c0.2-0.5,0.7-0.7,1.1-0.5s0.7,0.7,0.5,1.1C17.3,23,16.8,23.2,16.4,23z"/>
  <path class="base" d="M10.3,29.8c-2.5-0.9-3.7-3.6-2.8-6.1c0.9-2.5,3.6-3.7,6.1-2.8c2.5,0.9,3.7,3.6,2.8,6.1
	C15.5,29.4,12.8,30.7,10.3,29.8z"/>
  <path class="base" d="M14.5,31.8c-0.7-0.2-1-1-0.8-1.7c0.2-0.7,1-1,1.7-0.8s1,1,0.8,1.7S15.1,32,14.5,31.8z"/>
  <path class="base" d="M23.6,10c-0.7-0.3-1.1-1-0.8-1.7c0.3-0.7,1-1.1,1.7-0.8c0.7,0.3,1.1,1,0.8,1.7C25.1,9.9,24.3,10.2,23.6,10z"
  />
  <path class="base" d="M25.6,8.9c-0.2-0.1-0.2-0.2-0.2-0.4c0.1-0.2,0.2-0.2,0.4-0.2C26,8.4,26.1,8.5,26,8.7
	C26,8.8,25.8,8.9,25.6,8.9z"/>
  <path class="base" d="M24.5,7.4c-0.2-0.1-0.2-0.2-0.2-0.4s0.2-0.2,0.4-0.2c0.2,0.1,0.2,0.2,0.2,0.4C24.9,7.4,24.7,7.5,24.5,7.4z"
  />
  <path class="base" d="M24.8,7.6c-0.1,0-0.1-0.1-0.1-0.1c0-0.1,0.1-0.1,0.1-0.1C25,7.4,25,7.5,25,7.5C25,7.6,24.9,7.6,24.8,7.6z"/>
  <path class="base" d="M21.2,12.4c-0.9-0.3-1.4-1.3-1-2.2s1.3-1.4,2.2-1c0.9,0.3,1.4,1.3,1,2.2C23.1,12.3,22.1,12.7,21.2,12.4z"/>
  <path class="base" d="M22.2,9.1C22,9,21.9,8.8,22,8.6c0.1-0.2,0.3-0.3,0.5-0.2s0.3,0.3,0.2,0.5C22.6,9,22.4,9.2,22.2,9.1z"/>
  <path class="base" d="M22.6,9.2c-0.1,0-0.1-0.1-0.1-0.2C22.6,9,22.6,9,22.7,9c0.1,0,0.1,0.1,0.1,0.2C22.8,9.2,22.7,9.3,22.6,9.2z"
  />
  <path class="base" d="M23.7,10.8c-0.2-0.1-0.3-0.3-0.2-0.5c0.1-0.2,0.3-0.3,0.5-0.2c0.2,0.1,0.3,0.3,0.2,0.5
	C24.1,10.7,23.9,10.8,23.7,10.8z"/>
  <path class="base" d="M14.5,21.2c-1.7-0.6-2.5-2.5-1.9-4.2c0.6-1.7,2.5-2.5,4.2-1.9c1.7,0.6,2.5,2.5,1.9,4.2
	C18,21,16.2,21.9,14.5,21.2z"/>
  <path class="base" d="M15.7,14.9c-0.4-0.1-0.6-0.5-0.4-0.9c0.1-0.4,0.5-0.6,0.9-0.4c0.4,0.1,0.6,0.5,0.4,0.9
	C16.5,14.9,16.1,15.1,15.7,14.9z"/>
  <path class="base" d="M16.6,15.1c-0.1,0-0.2-0.2-0.1-0.3c0-0.1,0.2-0.2,0.3-0.1c0.1,0,0.2,0.2,0.1,0.3
	C16.8,15.1,16.7,15.1,16.6,15.1z"/>
  <path class="base" d="M19,17.3c-0.3-0.1-0.5-0.5-0.4-0.8c0.1-0.3,0.5-0.5,0.8-0.4c0.3,0.1,0.5,0.5,0.4,0.8
	C19.7,17.2,19.3,17.4,19,17.3z"/>
  <path class="base" d="M18.1,15.9c-1.2-0.4-1.8-1.8-1.4-3c0.4-1.2,1.8-1.8,3-1.4c1.2,0.4,1.8,1.8,1.4,3
	C20.7,15.7,19.4,16.4,18.1,15.9z"/>
  <path class="base" d="M21.5,13.4c-0.2-0.1-0.4-0.4-0.3-0.6c0.1-0.2,0.4-0.4,0.6-0.3c0.2,0.1,0.4,0.4,0.3,0.6
	C22,13.4,21.8,13.5,21.5,13.4z"/>
  <path class="base" d="M7.9,66.7c-6-2.2-9.1-8.9-6.8-14.9S10,42.7,16,44.9s9.1,8.9,6.8,14.9S13.9,68.9,7.9,66.7z"/>
</svg>
