<?xml version="1.0" encoding="utf-8"?>
<svg stroke="black" stroke-width="0.25" stroke-dasharray="2 2" fill="none" xmlns="http://www.w3.org/2000/svg" xmlns:xlink="http://www.w3.org/1999/xlink" viewBox="0 0 100 100">

<path class="base" d="M50,0C50,0,50,0,50,0C50,0,50,0,50,0C50,0,50,0.1,50,0C50,0.1,50,0,50,0z"/>
<path class="base" d="M6.7,25C6.7,25,6.7,25,6.7,25C6.7,25,6.8,25,6.7,25C6.8,25,6.8,25,6.7,25z"/>
<path class="base" d="M6.7,75C6.7,75,6.7,75,6.7,75C6.8,75,6.8,75,6.7,75C6.8,75,6.7,75,6.7,75z"/>
<path class="base" d="M6.8,25C15.4,39.9,31.5,50,50,50C40.8,34,24,25.1,6.8,25z"/>
<path class="base" d="M50,100C50,100,50,100,50,100C50,100,50,100,50,100C50,100,50,99.9,50,100C50,99.9,50,100,50,100z"/>
<path class="base" d="M6.8,75c17.2,0,34-9,43.2-25C31.5,50,15.4,60.1,6.8,75z"/>
<path class="base" d="M93.3,75C93.3,75,93.3,75,93.3,75C93.3,75,93.2,75,93.3,75C93.2,75,93.2,75,93.3,75z"/>
<path class="base" d="M50,99.9C58.6,85,59.2,66,50,50C40.8,66,41.4,85,50,99.9z"/>
<path class="base" d="M93.3,25C93.3,25,93.3,25,93.3,25C93.2,25,93.2,25,93.3,25C93.2,25,93.3,25,93.3,25z"/>
<path class="base" d="M50,0.1C41.4,15,40.8,34,50,50C59.2,34,58.6,15,50,0.1z"/>
<path class="base" d="M50,50c18.5,0,34.6-10.1,43.2-25C76,25.1,59.2,34,50,50z"/>
<path class="base" d="M93.2,75C84.6,60.1,68.5,50,50,50C59.2,66,76,74.9,93.2,75z"/>
</svg>
