<?xml version="1.0" encoding="utf-8"?>
<svg stroke="black" stroke-width="0.25" stroke-dasharray="2,2" fill="none" xmlns="http://www.w3.org/2000/svg" xmlns:xlink="http://www.w3.org/1999/xlink" viewBox="0 0 100 100">

<path class="base" d="M98.8,84.2C97.1,80.6,96.9,76.7,95.9,72.9c-0.301-0.9-0.7-1.5-1.5-1.2c-0.801,0.3-1.4,1-2.2,1.6c-0.2,0-0.9-0.1-1.2,0.101c-0.3,0.3-0.3,0.899-0.4,1.399c-0.1,0.7,0.7,1.7-0.8,1.9c-0.1-0.4-0.1-0.8-0.3-1.101c-0.2-0.399-0.5-1.1-0.9-1.1c-0.399,0-1.1,0.4-1.199,0.8C87.1,76,87.1,76.8,87,77.6c0,0.4-0.1,0.801-0.2,1.301C85.6,78,85.9,75.8,84,76.5c-1.5,0.5-0.3,1.7-0.4,2.6c-0.8,0.4-1.1,0-1.3-0.8s-0.5-1.6-1.6-1.399C79.8,77.1,79.1,77.5,79,78.6c0,0.301,0,0.5,0,0.801c-0.2,0.1-0.3,0.199-0.4,0.3c-0.3-0.3-0.699-0.5-0.8-0.8 c-0.2-1-0.899-1.5-1.8-1.7s-1.5,0.2-1.9,1c-0.3,0.8-1.1,0.7-1.6,0c-0.4-0.5-1-1.2-1.4-1.2c-0.5,0-1.1,0.7-1.8,1.3 c-0.1-0.1-0.5-0.399-0.7-0.7C68,76.4,66.7,75.8,65.4,76c-1,0.2-1.4,0.8-1.101,1.8c0.101,0.3,0.3,0.601,0.4,1 c-0.5,0.7-1.101,0.7-1.8,0.3C61,78,59.6,76.5,59.1,74.4c-0.6-2.5-1.1-5-1.699-7.5C56.8,64.1,56.3,61.4,54.1,59.2 C52.9,58.1,53.2,56.7,54.6,55.6c0.4-0.199,0.7-0.5,1-0.8c2-1.899,3.801-1.6,5.301,0.7c1.399,2.2,3.1,4.4,2.3,7.3 c-0.101,0.101-0.101,0.3,0,0.4c0.399,0.5,0.899,0.899,1.3,1.3c0.4-0.4,0.8-0.8,1-1.2c0.3-0.6,0.4-1.1,0.6-1.6 c0.801,0.6,1.301,1.3,1.7,1.2c0.7,0,1.601-0.4,2-1c0.4-0.5,0.101-1.4,0.101-2c0.399,0.199,1,0.8,1.3,0.699 C72.1,60.4,73,60,72.9,58.7c0-0.4,0.199-0.7,0.3-1c0.3,0.1,0.5,0.3,0.8,0.3c0.3,0.1,0.8,0.2,0.9,0c0.5-0.6,0.899-1.3,1.399-2.1 c2,0.699,2.601,0.3,2.8-2.2c0-0.8,0.4-0.8,1.101-0.7c1.7,0.3,2.8-1.2,2.2-2.7c-0.101-0.3,0-0.6,0-0.9c0.3,0,0.6,0.1,0.899,0.1 c0.601,0,1.5,0.2,1.7-0.1c0.4-0.5,0.4-1.3,0.5-2c0-0.3-0.2-0.7-0.3-1c1.2,1,2.3,0.8,3.5,0.2c1.899-1,0-2.1,0.2-3.5 c0.5,0.6,0.899,1.3,1.399,1.5c0.5,0.2,1.3,0.2,1.8,0c0.101,0,0.2-1.1,0-1.4c-0.6-0.8-1.3-1.5-2.1-2.1c-1.3-0.9-2.4-1.9-2.9-3.6 c-0.8-2.7-1.899-5.3-3.199-7.9c-1.2-2.5-2.7-3.2-5.4-2.7c-1.9,0.3-3.4-0.2-4.8-1.4c-0.7-0.7-1.4-1.5-2.2-2.1 c-1-0.7-2.1-1.4-3.2-1.8c-2.2-0.7-3.7-2.1-4.7-4c-0.8-1.5-0.3-2.3,1.4-2.4c2.5-0.1,4.7,0.5,6,2.9c0.5,0.8,1,1.6,1.6,2.3 c0.2,0.3,0.601,0.4,1.101,0.7c-0.101-2.9-0.9-5.1-3.2-6.5c-2.7-1.6-5.6-2.9-8.3-4.5c-1.101-0.6-2.2-1.3-3-2.3c-1.3-1.7-3-2.9-5-3.7 c-4-1.8-8.1-2.1-12.4-2C28.6,2.5,17.9,7.8,10,18.3C3.9,26.9,0.8,36.6,0,47c-0.3,3.5-0.3,7,1,10.4C2.6,61.5,5.1,65,7.9,68.3 c5.5,6.4,11.5,12.2,19.1,16c6,3.101,12,2.601,17.8-0.8c1.3-0.7,1.6-1.8,1.3-3.2c-0.6-2.7-2.1-4.899-4.3-6.6 C40.9,73,40.1,72.1,39.6,71.1c-1.1-2.199-1.3-2.5-3.8-2.3c-1.5,0.101-3,0.3-4.5,0.101c-1.5-0.101-1.9-1.2-0.8-2.2 c2.7-2.5,4.1-5.7,5.5-8.9c0.9-2.1,2-4,3.9-5.399c1.9-1.301,1.9-1.801,0.8-3.8c-2-3.5-3.3-7.3-4.1-11.2c0-0.3,0-0.7-0.1-1.4 c0.3,0.5,0.5,0.6,0.6,0.8c2,3.7,4,7.3,6,11c1.1,2.1,0.9,4-1.1,5.8C40,55.4,38.5,57.2,38.4,60c0,2.1-1.9,3.4-3.1,5 c-0.4,0.5-0.5,1.2-0.7,1.8c0.6,0.2,1.2,0.7,1.8,0.601c2.1-0.301,3.6,0.399,4.8,2.1c0.5,0.6,1.1,1.1,1.7,1.7c2.2,2.2,4,4.8,5.1,7.8 c1.1,2.8,2.4,5.5,3.5,8.3c0.9,2.4,2.5,3.7,5.1,4.2c4.5,0.8,9,1.7,13.5,2.8c3.301,0.8,6.4,2.101,9.7,2.9c2.9,0.7,6,1.1,8.7-0.5 c3-1.7,5.8-3.601,8.6-5.601C100.1,88.9,100.4,87.6,98.8,84.2z"/>

<path class="ajuda" d="M70.4,36.8c0.399,1,1.8,1.8,2.899,2.3c2.101,0.8,3.2-0.1,3.4-2.3c0.1-0.8,0.3-1.3,1.2-1.4c0.5-0.1,1-0.4,1.5-0.6C79,34.3,78.8,33.7,78.3,33.3c-2.6-1.9-4.8-4.1-6.399-7c-0.2-0.4-0.5-0.9-0.9-1.2c-0.7-0.5-1.5-0.9-2.3-1.4c-1.5,0.2-2.3,0.9-1.8,2.4C67.9,29.7,69,33.3,70.4,36.8z"/>

<path class="ajuda" d="M57.6,35.5c2.7-3.8,2-7.6,0.4-11.5c-1.3-3.2-3.8-4.8-7.2-4.8c-3.7,0.1-6.8,1.1-8.9,4.4c-3,5-2.2,12.3,2,16.4c1.9,1.9,3.4,2,5.7,0.4c1.3-0.9,2.8-1.9,4.3-2.3C55.5,37.6,56.7,36.9,57.6,35.5z"/>

</svg>