<?xml version="1.0" encoding="utf-8"?>
<svg stroke="black" stroke-width="0.25" stroke-dasharray="2 2" fill="none" xmlns="http://www.w3.org/2000/svg" xmlns:xlink="http://www.w3.org/1999/xlink" viewBox="0 0 100 100">

<path class="base" d="M18.7 60.8L21.9 66.3 25 71.7 18.7 71.7 12.5 71.7 15.6 66.3z"/>
<path class="base" d="M31.2 60.8L34.4 66.3 37.5 71.7 31.2 71.7 25 71.7 28.1 66.3z"/>
<path class="base" d="M25 50L28.1 55.4 31.2 60.8 25 60.8 18.7 60.8 21.9 55.4z"/>
<path class="base" d="M31.2 82.5L34.4 87.9 37.5 93.3 31.2 93.3 25 93.3 28.1 87.9z"/>
<path class="base" d="M43.7 82.5L46.9 87.9 50 93.3 43.7 93.3 37.5 93.3 40.6 87.9z"/>
<path class="base" d="M37.5 71.7L40.6 77.1 43.7 82.5 37.5 82.5 31.2 82.5 34.4 77.1z"/>
<path class="base" d="M6.2 82.5L9.3 87.9 12.5 93.3 6.2 93.3 0 93.3 3.1 87.9z"/>
<path class="base" d="M18.7 82.5L21.9 87.9 25 93.3 18.7 93.3 12.5 93.3 15.6 87.9z"/>
<path class="base" d="M12.5 71.7L15.6 77.1 18.7 82.5 12.5 82.5 6.2 82.5 9.3 77.1z"/>
<path class="base" d="M68.8 60.8L71.9 66.3 75 71.7 68.8 71.7 62.5 71.7 65.6 66.3z"/>
<path class="base" d="M81.3 60.8L84.4 66.3 87.5 71.7 81.3 71.7 75 71.7 78.1 66.3z"/>
<path class="base" d="M75 50L78.1 55.4 81.3 60.8 75 60.8 68.8 60.8 71.9 55.4z"/>
<path class="base" d="M81.3 82.5L84.4 87.9 87.5 93.3 81.3 93.3 75 93.3 78.1 87.9z"/>
<path class="base" d="M93.8 82.5L96.9 87.9 100 93.3 93.8 93.3 87.5 93.3 90.7 87.9z"/>
<path class="base" d="M87.5 71.7L90.7 77.1 93.8 82.5 87.5 82.5 81.3 82.5 84.4 77.1z"/>
<path class="base" d="M56.3 82.5L59.4 87.9 62.5 93.3 56.3 93.3 50 93.3 53.1 87.9z"/>
<path class="base" d="M68.8 82.5L71.9 87.9 75 93.3 68.8 93.3 62.5 93.3 65.6 87.9z"/>
<path class="base" d="M62.5 71.7L65.6 77.1 68.8 82.5 62.5 82.5 56.3 82.5 59.4 77.1z"/>
<path class="base" d="M43.7 17.5L46.9 22.9 50 28.3 43.7 28.3 37.5 28.3 40.6 22.9z"/>
<path class="base" d="M56.3 17.5L59.4 22.9 62.5 28.3 56.3 28.3 50 28.3 53.1 22.9z"/>
<path class="base" d="M50 6.7L53.1 12.1 56.3 17.5 50 17.5 43.7 17.5 46.9 12.1z"/>
<path class="base" d="M56.3 39.2L59.4 44.6 62.5 50 56.3 50 50 50 53.1 44.6z"/>
<path class="base" d="M68.8 39.2L71.9 44.6 75 50 68.8 50 62.5 50 65.6 44.6z"/>
<path class="base" d="M62.5 28.3L65.6 33.8 68.8 39.2 62.5 39.2 56.3 39.2 59.4 33.8z"/>
<path class="base" d="M31.2 39.2L34.4 44.6 37.5 50 31.2 50 25 50 28.1 44.6z"/>
<path class="base" d="M43.7 39.2L46.9 44.6 50 50 43.7 50 37.5 50 40.6 44.6z"/>
<path class="base" d="M37.5 28.3L40.6 33.8 43.7 39.2 37.5 39.2 31.2 39.2 34.4 33.8z"/>
</svg>
