<?xml version="1.0" encoding="utf-8"?>
<svg id="fundoFantasma" stroke="black" stroke-width="0.25" stroke-dasharray="2,2" fill="none" xmlns="http://www.w3.org/2000/svg" xmlns:xlink="http://www.w3.org/1999/xlink" viewBox="0 0 100 100">

<path class="base" d="M90.9,40.9C90.9,18.3,72.6,0,50,0C27.4,0,9.1,18.3,9.1,40.9C9.1,99.4,61,100,90.9,100C77,71.6,90.9,78.7,90.9,40.9z"/>

<path class="ajuda" d="M61.1,53.2C58.6,51.7,51.7,60.6,51.7,60.6S49,53.5,46.8,53.2c-2.7-0.3-8.2,7.399-8.2,7.399s-3.9-7.5-6.3-7.399C30,53.3,26.8,60.6,26.8,60.6s-5.9-9-8.2-7.399c-4.3,3,7,17.8,12.1,17c1.8-0.3,2.2-7.2,2.2-7.2s4.3,7.3,7,7.2C42.5,70.1,46,63,46,63s3.1,7.4,5.9,7.2C57.3,69.9,65.8,56.1,61.1,53.2z"/>

<path class="ajuda" d="M46.7,29.9c0,0-1,7.6,3,11.6c4.1,4,9.2,5.4,11.6,3c2.4-2.4,1.101-7.6-3-11.6C54.2,28.9,46.7,29.9,46.7,29.9z"/>

<path class="ajuda" d="M30.4,41.5c4-4.1,3-11.6,3-11.6s-7.6-1-11.6,3s-5.4,9.2-3,11.6C21.2,46.9,26.4,45.5,30.4,41.5z"/>

</svg>